<svg width="20" height="20" viewBox="0 0 20 20" fill="none" xmlns="http://www.w3.org/2000/svg">
<path d="M13.8039 2.11765V0.941177H12.3921V2.11765H7.60786V0.941177H6.19609V2.11765H0V19.0588H14.8806L20 13.9394V2.11765H13.8039ZM6.19609 3.52941V4.70588H7.60786V3.52941H12.3922V4.47059H13.804V3.52941H18.5882V5.88235H1.41176V3.52941H6.19609ZM1.41176 7.29412H18.5882V12.9412H13.8824V17.6471H1.41176V7.29412ZM17.59 14.3529L15.2941 16.6488V14.3529H17.59Z" fill="white"/>
<path d="M6.94132 13.4118H4.58838V15.7647H6.94132V13.4118Z" fill="white"/>
<path d="M11.1767 13.4118H8.82373V15.7647H11.1767V13.4118Z" fill="white"/>
<path d="M11.1767 9.17647H8.82373V11.5294H11.1767V9.17647Z" fill="white"/>
<path d="M15.4115 9.17647H13.0586V11.5294H15.4115V9.17647Z" fill="white"/>
<path d="M6.94132 9.17647H4.58838V11.5294H6.94132V9.17647Z" fill="white"/>
</svg>
