<svg width="15" height="15" viewBox="0 0 15 15" fill="none" xmlns="http://www.w3.org/2000/svg">
<path d="M13.025 1.97504V1.87504V0.937441C13.025 0.638173 12.8653 0.361723 12.6063 0.212175C12.3472 0.0626179 12.0279 0.0626205 11.7688 0.212173L11.7188 0.125605L11.7688 0.212175C11.5097 0.361722 11.3501 0.638208 11.3501 0.937441V1.87487V1.97487L11.2501 1.97487L8.43744 1.97504L8.33743 1.97504V1.87504V0.937436C8.33743 0.638169 8.1778 0.361719 7.91873 0.212171C7.65963 0.0626141 7.34035 0.0626166 7.08128 0.212169L7.08128 0.212172C6.8222 0.361718 6.66257 0.638204 6.66257 0.937436V1.87487V1.97486L6.56258 1.97487L3.74991 1.97503L3.6499 1.97504V1.87503V0.937433C3.6499 0.638166 3.49027 0.361715 3.23119 0.212167M13.025 1.97504L3.23119 0.212167M13.025 1.97504H13.125H14.0626C14.3618 1.97504 14.6383 2.13467 14.7878 2.39375L14.8744 2.34376L14.7878 2.39375C14.9374 2.65281 14.9374 2.9721 14.7878 3.2312C14.6383 3.49027 14.3618 3.6499 14.0626 3.6499L13.125 3.64989L13.025 3.64989V3.74989V6.56256V6.66256H13.125H14.0626C14.3618 6.66256 14.6383 6.82219 14.7878 7.08127L14.8744 7.03128L14.7878 7.08128C14.9374 7.34034 14.9374 7.65962 14.7878 7.91872C14.6383 8.17779 14.3618 8.33743 14.0626 8.33743H13.125H13.025V8.43743V11.2501V11.3501H13.125H14.0626C14.3618 11.3501 14.6383 11.5097 14.7878 11.7688L14.8744 11.7188L14.7878 11.7688C14.9374 12.0279 14.9374 12.3472 14.7878 12.6063C14.6383 12.8653 14.3618 13.025 14.0626 13.025H13.125H13.025V13.125V14.0626C13.025 14.3618 12.8653 14.6383 12.6063 14.7878L12.6562 14.8744L12.6062 14.7878C12.3472 14.9374 12.0279 14.9374 11.7688 14.7878C11.5097 14.6383 11.3501 14.3618 11.3501 14.0626V13.125V13.025H11.2501H8.43742H8.33742V13.125V14.0626C8.33742 14.3618 8.17779 14.6383 7.91872 14.7878L7.96871 14.8744L7.91871 14.7878C7.65965 14.9374 7.34037 14.9374 7.08127 14.7878C6.8222 14.6383 6.66256 14.3618 6.66256 14.0626V13.125V13.025H6.56256H3.74989H3.64989V13.125V14.0626C3.64989 14.3618 3.49026 14.6383 3.23118 14.7878L3.28117 14.8744L3.23118 14.7878C2.97212 14.9374 2.65283 14.9374 2.39374 14.7878C2.13466 14.6383 1.97503 14.3618 1.97503 14.0626V14.0211L1.97486 14.0209V13.125V13.025H1.87486H0.937431C0.638199 13.025 0.361714 12.8653 0.212167 12.6063L0.125579 12.6562L0.212165 12.6063C0.0626125 12.3472 0.06261 12.0279 0.212167 11.7688C0.361715 11.5097 0.638165 11.3501 0.937431 11.3501H1.87503H1.97504L1.97503 11.2501L1.97487 8.43743L1.97486 8.33743H1.87487H0.937435C0.638203 8.33743 0.361718 8.1778 0.212171 7.91872L0.212169 7.91872C0.0626163 7.65966 0.0626138 7.34037 0.212171 7.08128C0.361719 6.8222 0.638169 6.66257 0.937435 6.66257H1.87503H1.97504L1.97503 6.56256L1.97487 3.74989L1.97487 3.64989H1.87487H0.937439C0.638207 3.64989 0.361721 3.49026 0.212175 3.23118L0.212173 3.23118C0.0626202 2.97212 0.0626176 2.65283 0.212174 2.39374C0.361723 2.13466 0.638173 1.97503 0.937439 1.97503H0.937456L1.87506 1.97486L1.97504 1.97485V1.87486V0.937433C1.97504 0.6382 2.13467 0.361714 2.39375 0.212167L2.39375 0.212165C2.65281 0.0626125 2.9721 0.06261 3.23119 0.212167M13.025 1.97504L3.28119 0.12556L3.23119 0.212167M0.125564 7.03128C-0.0418495 7.32132 -0.0418495 7.67871 0.125564 7.96872C0.292977 8.25875 0.602483 8.43743 0.937435 8.43743H1.87487L0.125564 7.03128ZM1.77503 11.2501L0.937431 11.2501C0.602441 11.2501 0.292974 11.4288 0.12556 11.7188C-0.0418534 12.0089 -0.0418534 12.3663 0.12556 12.6563C0.292974 12.9463 0.602479 13.125 0.937431 13.125H1.77486H1.87486L1.77503 11.2501ZM6.56245 11.35H6.66245V11.25V8.43736V8.33736H6.56245H3.74978H3.64978V8.43736V11.25V11.35H3.74978H6.56245ZM6.56245 6.66245H6.66245V6.56245V3.74978V3.64978H6.56245H3.74978H3.64978V3.74978V6.56245V6.66245H3.74978H6.56245ZM11.25 11.35H11.35V11.25V8.43736V8.33736H11.25H8.43735H8.33735V8.43736V11.25V11.35H8.43735H11.25ZM11.25 6.66245H11.35V6.56245V3.74978V3.64978H11.25H8.43735H8.33735V3.74978V6.56245V6.66245H8.43735H11.25Z" fill="white" stroke="#2B313B" stroke-width="0.2"/>
</svg>
