<svg width="18" height="18" viewBox="0 0 18 18" fill="none" xmlns="http://www.w3.org/2000/svg">
<path d="M15.1875 7.875H13.5V4.5C13.5 2.01874 11.4813 0 9 0C6.51874 0 4.5 2.01874 4.5 4.5V7.875H2.8125C2.50186 7.875 2.25 8.12686 2.25 8.4375V17.4375C2.25 17.7481 2.50186 18 2.8125 18H15.1875C15.4981 18 15.75 17.7481 15.75 17.4375V8.4375C15.75 8.12686 15.4981 7.875 15.1875 7.875ZM5.625 4.5C5.625 2.6389 7.13893 1.125 9 1.125C10.8611 1.125 12.375 2.63893 12.375 4.5V7.875H11.8125V4.5C11.8125 2.94929 10.5507 1.6875 9 1.6875C7.44929 1.6875 6.1875 2.94929 6.1875 4.5V7.875H5.625V4.5ZM7.3125 7.875V4.5C7.3125 3.56945 8.06945 2.8125 9 2.8125C9.93055 2.8125 10.6875 3.56945 10.6875 4.5V7.875H7.3125ZM14.625 16.875H3.375V9H14.625V16.875Z" fill="white"/>
<path d="M9 10.6876C8.37868 10.6876 7.875 11.1912 7.875 11.8126C7.875 12.2279 8.10267 12.5866 8.4375 12.7815V14.0626C8.4375 14.3732 8.68932 14.6251 9 14.6251C9.31068 14.6251 9.5625 14.3732 9.5625 14.0626V12.7815C9.89733 12.5866 10.125 12.2279 10.125 11.8126C10.125 11.1912 9.62132 10.6876 9 10.6876Z" fill="white"/>
</svg>
