<svg width="18" height="18" viewBox="0 0 18 18" fill="none" xmlns="http://www.w3.org/2000/svg">
<path d="M17.2393 6.72335H15.8354C15.7215 6.41833 15.6076 6.11331 15.4569 5.84871L16.4455 4.86014C16.7505 4.55879 16.7505 4.1031 16.4455 3.79807L14.2405 1.59309C13.9392 1.28807 13.4835 1.28807 13.1784 1.59309L12.1531 2.61841C11.8885 2.50449 11.5835 2.39056 11.3189 2.27664V0.832374C11.3189 0.413427 10.9771 0.0716553 10.5582 0.0716553H7.44181C7.02287 0.0716553 6.68109 0.413427 6.68109 0.832374V2.19579C6.37975 2.30971 6.11147 2.42364 5.84688 2.53756L4.82156 1.51224C4.52021 1.20722 4.06452 1.20722 3.75949 1.51224L1.55451 3.71723C1.24949 4.01857 1.24949 4.47427 1.55451 4.77929L2.54308 5.76786C2.39241 6.07288 2.27848 6.33748 2.16456 6.6425H0.760719C0.341772 6.6425 0 6.98427 0 7.40322V10.5196C0 10.9385 0.341772 11.2803 0.760719 11.2803H2.05063C2.16456 11.5853 2.27848 11.8867 2.42915 12.1917L1.48101 13.1398C1.33034 13.2905 1.05472 13.7389 1.48101 14.2019L3.68599 16.4069C3.98734 16.7119 4.44304 16.7119 4.74806 16.4069L5.65945 15.4955C5.9608 15.6866 6.26582 15.8005 6.60759 15.9144V17.1676C6.60759 17.5866 6.94937 17.9283 7.36831 17.9283H10.4847C10.9036 17.9283 11.2454 17.5866 11.2087 17.2485V15.9953C11.51 15.8814 11.8518 15.727 12.1568 15.5764L13.0682 16.4877C13.3695 16.7928 13.8252 16.7928 14.1303 16.4877L16.3352 14.2828C16.6403 13.9814 16.6403 13.5257 16.3352 13.2207L15.3871 12.2726C15.5378 11.9675 15.6517 11.6662 15.7656 11.3612H17.2393C17.6582 11.3612 18 11.0194 18 10.6004V7.48407C18 7.06512 17.6582 6.72335 17.2393 6.72335ZM16.3757 9.80297H15.2364C14.8947 9.80297 14.5933 10.0308 14.5161 10.3726C14.3618 10.9422 14.1744 11.4751 13.8693 11.9675C13.6782 12.2726 13.7554 12.6511 13.9833 12.8789L14.7807 13.6764L13.6415 14.8156L12.8808 14.0549C12.6529 13.7903 12.2744 13.7499 11.9694 13.941C11.4365 14.246 10.9036 14.4739 10.334 14.6245C9.99224 14.698 9.76439 15.0031 9.76439 15.3448V16.4473H8.12903V16.4436H8.09228V15.3412C8.09228 14.9994 7.86443 14.698 7.52266 14.6209C6.94937 14.4702 6.37975 14.2423 5.8873 13.9373C5.58228 13.7462 5.20376 13.8234 4.97591 14.0512L4.21519 14.812L3.07595 13.6727L3.87342 12.8752C4.10127 12.6107 4.17844 12.2689 3.98734 11.9639C3.68232 11.4714 3.45447 10.9385 3.34055 10.3689C3.26705 10.0271 2.96203 9.7993 2.62025 9.7993H1.48101V8.16394H2.69743C3.0392 8.16394 3.34055 7.93609 3.41772 7.59432C3.53165 7.06145 3.75949 6.56533 4.06452 6.07288C4.25561 5.76786 4.17844 5.38934 3.95059 5.16149L3.07595 4.28685L4.21519 3.1476L5.08983 4.02225C5.35443 4.2501 5.6962 4.32727 6.00122 4.13617C6.49735 3.87157 6.98979 3.64373 7.52266 3.5298C7.86443 3.4563 8.09228 3.15128 8.09228 2.80951V1.55634H9.72764V2.84993C9.72764 3.1917 9.95549 3.49305 10.2973 3.57023C10.8301 3.68415 11.363 3.912 11.8187 4.1766C12.1237 4.36769 12.5022 4.29052 12.7301 4.06267L13.6415 3.15128L14.7807 4.29052L13.9061 5.16516C13.6415 5.39301 13.6011 5.77153 13.7922 6.07656C14.0604 6.53593 14.2883 7.06512 14.439 7.59799C14.5125 7.93976 14.8175 8.16761 15.1592 8.16761H16.3757V9.80297Z" fill="white"/>
<path d="M8.92636 4.86014C6.64788 4.86014 4.78467 6.72335 4.78467 9.00183C4.78467 11.2803 6.64788 13.1435 8.92636 13.1435C11.2085 13.1435 13.068 11.2803 13.068 9.00183C13.068 6.72335 11.2048 4.86014 8.92636 4.86014ZM8.92636 11.6625C7.4821 11.6625 6.26568 10.4828 6.26568 9.00183C6.26568 7.55757 7.44535 6.34115 8.92636 6.34115C10.4074 6.34115 11.587 7.52082 11.587 9.00183C11.587 10.4461 10.3706 11.6625 8.92636 11.6625Z" fill="white"/>
</svg>
