<svg width="24" height="24" viewBox="0 0 24 24" fill="none" xmlns="http://www.w3.org/2000/svg">
<g clip-path="url(#clip0_203_1110)">
<path d="M23.3272 3.61106C23.1423 3.46335 22.8993 3.40792 22.6684 3.46021C22.6616 3.46173 21.9739 3.61456 20.8965 3.61456C18.7186 3.61456 15.5001 3.02455 12.5357 0.213569C12.2354 -0.0711896 11.7648 -0.0711896 11.4645 0.213569C11.4554 0.222196 11.4462 0.230562 11.4371 0.23919C11.4353 0.240811 11.4334 0.242275 11.4316 0.243948C8.47482 3.02962 5.27027 3.61441 3.10269 3.61446C2.1921 3.61446 1.56047 3.50539 1.38394 3.47103C1.16512 3.42837 0.960885 3.4178 0.730244 3.5696C0.501068 3.72039 0.379395 3.96777 0.379395 4.21911C0.379395 9.29917 1.40198 14.6733 4.25919 18.8457C4.2697 18.861 4.28015 18.8764 4.29066 18.8916C6.0069 21.38 8.95152 24.0001 12.0001 24.0001C14.4919 24.0001 17.3735 22.1455 19.5205 19.1601C21.3911 16.5591 23.6208 11.8557 23.6208 4.21906C23.6208 3.98246 23.5121 3.75888 23.3272 3.61106ZM11.187 22.3499C9.67858 22.0273 7.58834 20.8273 5.72502 18.225C4.06975 15.9132 2.11006 11.7898 1.94724 5.11841C2.26708 5.14852 2.65704 5.17143 3.10274 5.17143C5.97793 5.17132 8.79456 4.2577 11.187 2.47856V22.3499ZM18.2565 18.251C16.3671 20.8783 14.2541 22.0658 12.7439 22.3645V20.0852C15.6453 19.4492 19.8948 15.218 19.8948 6.3343C19.8948 6.3343 19.3484 6.461 18.478 6.461C17.0907 6.461 14.8801 6.13822 12.7439 4.46926V2.42654C15.1965 4.27381 18.0477 5.17158 20.8965 5.17158C21.3425 5.17158 21.7328 5.14863 22.0529 5.11846C21.8898 11.8089 19.9202 15.9378 18.2565 18.251ZM12.7439 18.4696V6.36594C14.8849 7.70094 16.9873 7.99067 18.2821 8.01603C17.9035 13.5846 15.6359 16.7958 13.616 18.0464C13.3204 18.2295 13.0232 18.3727 12.7439 18.4696Z" fill="#728EA6"/>
</g>
<defs>
<clipPath id="clip0_203_1110">
<rect width="24" height="24" fill="white"/>
</clipPath>
</defs>
</svg>
