<svg width="23" height="24" viewBox="0 0 23 24" fill="none" xmlns="http://www.w3.org/2000/svg">
<g clip-path="url(#clip0_401_68)">
<path d="M22.7122 19.0448L18.1421 14.4746C17.7585 14.091 17.1366 14.091 16.7529 14.4746L16.0583 15.1692L14.6281 13.739C15.7589 12.3034 16.3725 10.5421 16.3724 8.68637C16.3725 6.49969 15.521 4.44391 13.9748 2.89769C12.4286 1.35147 10.3729 0.5 8.18618 0.5C3.67227 0.5 0 4.17233 0 8.68624C0 13.2002 3.67233 16.8725 8.18624 16.8725C10.042 16.8725 11.8032 16.2589 13.2389 15.1282L14.6691 16.5583L13.9745 17.253C13.7903 17.4372 13.6868 17.687 13.6868 17.9475C13.6868 18.208 13.7903 18.4579 13.9745 18.6421L18.5447 23.2123C18.7365 23.4041 18.9879 23.5 19.2393 23.5C19.4907 23.5 19.7421 23.4041 19.9339 23.2123L22.7123 20.434C22.8966 20.2497 23 19.9999 23 19.7394C23 19.4788 22.8965 19.229 22.7122 19.0448ZM12.5856 13.0856C11.4106 14.2607 9.84811 14.9079 8.18624 14.9079C4.75562 14.9079 1.96462 12.1169 1.96462 8.68624C1.96462 5.25562 4.75556 2.46462 8.18624 2.46462C9.84811 2.46462 11.4105 3.11177 12.5856 4.28687C13.7607 5.46197 14.4079 7.02444 14.4079 8.68637C14.4079 10.3482 13.7607 11.9105 12.5856 13.0856ZM19.2393 21.1285L16.0583 17.9475L16.7526 17.2533C16.7527 17.2532 16.7528 17.2531 16.753 17.253C16.7531 17.2528 16.7532 17.2528 16.7533 17.2526L17.4475 16.5583L20.6285 19.7393L19.2393 21.1285Z" fill="white" fill-opacity="0.5"/>
</g>
<defs>
<clipPath id="clip0_401_68">
<rect width="23" height="23" fill="white" transform="translate(0 0.5)"/>
</clipPath>
</defs>
</svg>
