<svg width="18" height="15" viewBox="0 0 18 15" fill="none" xmlns="http://www.w3.org/2000/svg">
<path d="M16.8441 0.206816L16.5462 0.315098L0.381638 6.15411C0.267086 6.18963 0.167526 6.26224 0.0985621 6.36058C0.0295979 6.45892 -0.00487207 6.57742 0.000555472 6.69751C0.00598301 6.81759 0.0510011 6.93248 0.128553 7.02416C0.206106 7.11585 0.311809 7.17914 0.429094 7.20412L4.61343 8.35256L5.394 10.6495L6.17458 12.9463C6.21942 13.0589 6.291 13.1589 6.3831 13.2374C6.4752 13.316 6.58503 13.3708 6.70307 13.3972C6.82111 13.4235 6.94378 13.4206 7.06043 13.3886C7.17708 13.3567 7.28418 13.2966 7.37244 13.2138L9.53416 11.1663L13.779 14.0521C14.2978 14.4065 15.0375 14.144 15.17 13.5599L17.9814 1.10588C18.1188 0.489005 17.4708 -0.0179506 16.8441 0.206816ZM14.7805 2.97128L7.47717 8.95632L7.13352 9.23851C7.05803 9.29851 7.00875 9.38557 6.99606 9.48132L6.91915 10.1179L6.70805 11.9062C6.70979 11.9279 6.70283 11.9495 6.68872 11.9661C6.6746 11.9827 6.65448 11.993 6.63278 11.9948C6.61108 11.9965 6.58958 11.9895 6.573 11.9754C6.55643 11.9612 6.54615 11.9411 6.54441 11.9193L5.95039 10.1327L5.33673 8.30334C5.31078 8.22112 5.31422 8.13239 5.34648 8.05244C5.37874 7.97249 5.43779 7.90631 5.51346 7.86529L13.113 3.49793L14.5433 2.67761C14.7511 2.5562 14.9638 2.82035 14.7805 2.97128Z" fill="white" fill-opacity="0.8"/>
</svg>
