<svg width="19" height="21" viewBox="0 0 19 21" fill="none" xmlns="http://www.w3.org/2000/svg">
<path d="M18.5348 4.15375C18.3674 3.49861 17.8824 2.75174 17.2734 2.11189C16.5253 1.32571 15.5684 0.685857 14.731 0.498049C11.2747 -0.166016 7.72424 -0.166016 4.26787 0.498049C2.74548 0.838724 0.838143 2.68186 0.466245 4.15375C-0.155415 6.99449 -0.155415 9.93688 0.466245 12.7776C0.766373 13.97 2.0691 15.3982 3.35879 16.0839C3.6446 16.2418 3.95042 16.3601 4.26787 16.4355C4.30071 16.4412 4.3305 16.4583 4.35199 16.4839C4.37348 16.5094 4.38528 16.5418 4.38531 16.5753V20.7682C4.38525 20.8145 4.39904 20.8599 4.42492 20.8982C4.45079 20.9366 4.48755 20.9663 4.53043 20.9835C4.57331 21.0007 4.62034 21.0046 4.66543 20.9946C4.71051 20.9846 4.75158 20.9613 4.78331 20.9276L6.76894 18.8857L8.63061 16.964C8.64382 16.9495 8.66 16.9382 8.67802 16.9306C8.69605 16.9231 8.71549 16.9196 8.735 16.9203C10.7445 16.9746 12.754 16.8121 14.7289 16.4355C16.2513 16.0948 18.1586 14.2517 18.5327 12.7776C19.155 9.93704 19.1558 6.99464 18.5348 4.15375ZM14.7854 12.9895C14.5031 13.6371 14.0173 14.1741 13.4022 14.5181C13.2097 14.602 13.0094 14.6664 12.8041 14.7103C12.5714 14.6382 12.3496 14.5924 12.1517 14.505C10.5063 13.86 8.97514 12.9531 7.61713 11.8189C7.21361 11.4713 6.83362 11.097 6.47969 10.6986C5.60802 9.69085 4.87641 8.56908 4.30484 7.36395C4.02646 6.79616 3.79158 6.20435 3.55235 5.6169C3.33486 5.08187 3.65674 4.525 3.98732 4.12754C4.31013 3.75608 4.70833 3.45824 5.15521 3.25402C5.31207 3.1739 5.49205 3.15187 5.66349 3.19181C5.83493 3.23176 5.98686 3.33111 6.09257 3.4724C6.64395 4.10018 7.13002 4.78289 7.54319 5.5099C7.67372 5.72168 7.71829 5.9757 7.6677 6.21952C7.61712 6.46335 7.47523 6.67836 7.27133 6.82018C7.16259 6.89443 7.05385 6.98397 6.96033 7.06695C6.86807 7.13629 6.78858 7.22128 6.72544 7.31809C6.67057 7.40834 6.6373 7.51014 6.62825 7.61548C6.61919 7.72082 6.63459 7.82684 6.67325 7.92519C7.09299 9.0848 7.73022 10.05 8.6828 10.7292C9.00511 10.9588 9.35242 11.1508 9.71803 11.3014C9.95654 11.432 10.225 11.4975 10.4966 11.4914C10.9707 11.4346 11.1273 10.9105 11.4579 10.6375C11.6099 10.5131 11.7978 10.4412 11.9937 10.4325C12.1896 10.4239 12.383 10.4789 12.5453 10.5894C12.8976 10.8078 13.2369 11.0524 13.5762 11.2948C13.9117 11.524 14.2348 11.7712 14.544 12.0351C14.6884 12.1412 14.7915 12.2945 14.8356 12.4687C14.8796 12.6429 14.8619 12.827 14.7854 12.9895ZM11.6623 7.7483C11.6491 7.71241 11.6403 7.675 11.6362 7.63693C11.625 7.48996 11.6031 7.34399 11.571 7.20017C11.507 6.90808 11.3421 6.64815 11.1056 6.46641C10.991 6.38501 10.8639 6.32304 10.7293 6.28297C10.5575 6.23492 10.377 6.24802 10.2074 6.20653C10.1235 6.19161 10.049 6.14393 10.0001 6.07394C9.95115 6.00395 9.93185 5.91735 9.94639 5.8331C9.96211 5.75199 10.0068 5.67946 10.0721 5.62918C10.1374 5.5789 10.2188 5.55434 10.3009 5.56012C11.297 5.63437 12.0408 6.11481 12.2321 7.18706C12.252 7.28659 12.2658 7.38723 12.2735 7.48843C12.2877 7.57886 12.2877 7.67098 12.2735 7.76141C12.2614 7.8169 12.233 7.86744 12.1919 7.90641C12.1507 7.94538 12.0988 7.97096 12.0429 7.97979H11.9951C11.9218 7.98446 11.849 7.96415 11.7886 7.92214C11.7282 7.88013 11.6837 7.81887 11.6623 7.7483ZM11.3448 5.04256C11.0096 4.88444 10.6537 4.77488 10.2878 4.71717C10.1269 4.69097 9.96596 4.67568 9.80502 4.65384C9.76293 4.65176 9.72171 4.64098 9.68394 4.62218C9.64618 4.60338 9.61268 4.57697 9.58554 4.54459C9.55839 4.51222 9.53819 4.47457 9.52619 4.434C9.51418 4.39343 9.51064 4.35081 9.51577 4.3088C9.5161 4.26619 9.52536 4.22412 9.54295 4.18534C9.56054 4.14656 9.58606 4.11193 9.61786 4.08371C9.64966 4.05549 9.68702 4.0343 9.72751 4.02154C9.768 4.00877 9.81071 4.00471 9.85287 4.00962C10.4915 4.03437 11.1171 4.1983 11.6863 4.49006C12.381 4.8407 12.948 5.40235 13.3065 6.09516C13.5083 6.50092 13.6434 6.93675 13.7067 7.38579C13.7186 7.44424 13.7273 7.50329 13.7328 7.56268C13.7437 7.69371 13.748 7.82255 13.7589 7.98634V8.04749C13.7573 8.11232 13.7486 8.17677 13.7328 8.23966C13.7135 8.30269 13.6754 8.35824 13.6236 8.39876C13.5719 8.43929 13.5089 8.46282 13.4433 8.46616C13.3778 8.4695 13.3128 8.45248 13.2571 8.41743C13.2015 8.38238 13.158 8.33098 13.1325 8.27023C13.1083 8.18209 13.0973 8.09083 13.0999 7.99944C13.1047 7.51171 13.0085 7.02831 12.8172 6.57996C12.7738 6.4813 12.7252 6.38507 12.6715 6.2917C12.3596 5.75466 11.8986 5.32057 11.3448 5.04256ZM14.9377 9.06951C14.7202 9.06951 14.6136 8.88388 14.5984 8.68079C14.5701 8.28115 14.5484 7.87933 14.494 7.48188C14.3997 6.81069 14.1671 6.16661 13.8111 5.5907C13.4449 4.99171 12.9576 4.47657 12.3806 4.07858C11.8037 3.68059 11.15 3.40861 10.4618 3.28023C10.1486 3.22563 9.82895 3.21253 9.51359 3.17759C9.31351 3.15793 9.05035 3.14483 9.00686 2.89369C9.00105 2.84557 9.0054 2.79676 9.01964 2.75044C9.03387 2.70412 9.05766 2.66133 9.08947 2.62486C9.12127 2.58839 9.16037 2.55906 9.20422 2.53878C9.24807 2.5185 9.29568 2.50772 9.34396 2.50716H9.57666C10.5145 2.52691 11.4334 2.77587 12.2538 3.23249C13.0743 3.68911 13.7715 4.33962 14.2852 5.12773C14.6968 5.7703 14.9763 6.48903 15.1073 7.24166C15.1899 7.71555 15.2204 8.20035 15.2574 8.68079C15.2644 8.72782 15.2615 8.77583 15.2489 8.82167C15.2362 8.86751 15.2141 8.91016 15.1839 8.94684C15.1538 8.98351 15.1163 9.01339 15.0738 9.03453C15.0314 9.05567 14.985 9.06759 14.9377 9.06951Z" fill="white" fill-opacity="0.8"/>
</svg>
