<svg width="19" height="19" viewBox="0 0 19 19" fill="none" xmlns="http://www.w3.org/2000/svg">
<path d="M16.265 2.83238L16.2161 2.78346C14.6172 1.18383 12.5 0.207271 10.2454 0.0294245C7.99079 -0.148422 5.74671 0.484118 3.91679 1.81327C2.08688 3.14243 0.791219 5.08097 0.262859 7.28022C-0.265502 9.47947 0.00811277 11.7951 1.03449 13.8106L1.45249 14.6334L0.674291 18.4136L0.663173 18.4625L4.41856 17.573L5.27458 18.0067C7.05571 18.8916 9.06939 19.1959 11.0324 18.8768C12.9955 18.5577 14.8091 17.6312 16.2183 16.2277C17.9909 14.4548 18.9908 12.0529 18.9999 9.54569C19.0091 7.03851 18.0268 4.62937 16.2673 2.8435L16.265 2.83238ZM15.8826 13.4437C15.4224 14.1686 14.6953 15.0536 13.7815 15.2738C12.1806 15.6629 9.72368 15.2871 6.66646 12.4386L6.62866 12.403C3.94052 9.91252 3.24236 7.83784 3.41134 6.19233C3.50473 5.25617 4.28293 4.4134 4.93884 3.85971C5.04272 3.77165 5.1657 3.70903 5.29801 3.67681C5.43031 3.64458 5.56831 3.64365 5.70104 3.67409C5.83377 3.70452 5.95758 3.76548 6.06264 3.85213C6.1677 3.93878 6.25111 4.04873 6.30626 4.17325L7.29569 6.41025C7.36047 6.55433 7.38457 6.71339 7.36536 6.87019C7.34615 7.02699 7.28438 7.17554 7.18674 7.29972L6.68647 7.94903C6.58171 8.08217 6.51847 8.24321 6.50463 8.41206C6.4908 8.58092 6.52697 8.7501 6.60865 8.89853C6.8888 9.38774 7.56028 10.1104 8.30513 10.782C9.14114 11.5358 10.0683 12.2274 10.6553 12.4653C10.8127 12.5283 10.9853 12.5431 11.1512 12.5079C11.317 12.4726 11.4687 12.3889 11.5869 12.2674L12.1672 11.6826C12.2792 11.5721 12.4185 11.4934 12.5708 11.4543C12.7231 11.4152 12.8831 11.4173 13.0344 11.4602L15.3846 12.1273C15.5145 12.167 15.6337 12.2359 15.7329 12.3288C15.832 12.4217 15.9086 12.5361 15.9567 12.6632C16.0048 12.7903 16.0231 12.9268 16.0103 13.0621C15.9974 13.1974 15.9538 13.3279 15.8826 13.4437Z" fill="white" fill-opacity="0.8"/>
</svg>
